# xmcd
#
# Track frame offsets:
#	150
#	10153
#	23982
#	45029
#	61792
#	77025
#	95278
#	110029
#	125111
#	141758
#	154490
#	173115
#	189167
#	205352
#	221069
#	238805
#	253701
#
# Disc length: 3584 seconds
#
# Revision: 1
# Processed by: cddbd v1.5.2PL0 Copyright (c) Steve Scherf et al.
# Submitted via: audiograbber 1.83.01
#
DISCID=ea0dfe11
DTITLE=RAF Camora - Anthrazit
DYEAR=2017
DGENRE=Gangsta
TTITLE0=Anthrazit
TTITLE1=Vienna
TTITLE2=Alles probiert (feat. Bonez MC)
TTITLE3=Bye, Bye
TTITLE4=Primo
TTITLE5=Roots (feat. Gentleman)
TTITLE6=Donna Imma
TTITLE7=Niemals (feat. Kontra K)
TTITLE8=Andere Liga
TTITLE9=Luft
TTITLE10=Money (feat. Ufo 361)
TTITLE11=Teflon
TTITLE12=Augenblick (feat. Bonez MC)
TTITLE13=Entertainment (feat. KC Rebell)
TTITLE14=Was jetzt
TTITLE15=In meiner Wolke
TTITLE16=Kontrollieren (feat. Bonez MC, Gzuz, Maxwell)
EXTD=
EXTT0=
EXTT1=
EXTT2=
EXTT3=
EXTT4=
EXTT5=
EXTT6=
EXTT7=
EXTT8=
EXTT9=
EXTT10=
EXTT11=
EXTT12=
EXTT13=
EXTT14=
EXTT15=
EXTT16=
PLAYORDER=
